<?xml version="1.0" standalone="no"?><!DOCTYPE svg PUBLIC "-//W3C//DTD SVG 1.1//EN" "http://www.w3.org/Graphics/SVG/1.1/DTD/svg11.dtd"><svg t="1608280963264" class="icon" viewBox="0 0 1024 1024" version="1.1" xmlns="http://www.w3.org/2000/svg" p-id="11084" xmlns:xlink="http://www.w3.org/1999/xlink" width="200" height="200"><defs><style type="text/css"></style></defs><path d="M519.949376 962.757171 82.324346 552.489156C37.590684 498.487242 12.956624 429.871491 12.956624 359.306342c0-164.353209 132.394773-298.063513 295.128778-298.063513 75.858826 0 147.747057 28.804023 201.928278 80.017428 54.185314-51.213405 126.071499-80.017428 201.932371-80.017428 162.736052 0 295.130825 133.711328 295.130825 298.063513 0 70.565149-24.634061 139.180899-69.367722 193.182814l-2.956456 3.096525L593.023669 868.846314l-41.747529-46.447868 340.092693-311.776839c34.06934-41.915645 53.575398-96.944959 53.575398-151.315264 0-129.758296-104.517719-235.313354-232.998181-235.313354-69.215243 0-134.154933 30.243815-178.176344 82.972736l-23.756027 28.453029-23.749887-28.453029c-44.023457-52.728922-108.961101-82.972736-178.178391-82.972736-128.482509 0-232.998181 105.555058-232.998181 235.313354 0 54.43375 19.537782 109.50502 53.684896 151.439084l433.442603 405.991618L519.949376 962.757171z" p-id="11085" fill="#2c2c2c"></path><path d="M485.427716 759.249197l-312.863419-293.699112c-22.783845-30.441313-35.344433-68.171636-35.344433-106.242719 0-95.15008 76.648851-172.561148 170.865538-172.561148l0 62.748113c-59.948817 0-108.730847 49.269124-108.730847 109.813035 0 23.289426 7.719123 47.292096 21.248822 66.319451l307.08252 287.602254L485.427716 759.249197zM616.930128 312.48906l-54.426825-30.269397c21.99382-40.324404 58.277687-69.583798 102.175273-82.407871 43.883258-12.822027 90.015838-7.614421 129.937712 14.570857l-29.972873 54.964846c-25.360639-14.108323-54.745086-17.403369-82.699915-9.252735C654.004021 268.25972 630.897821 286.874683 616.930128 312.48906z" p-id="11086" fill="#2c2c2c"></path></svg>